<?xml version="1.0" standalone="no"?>
<!DOCTYPE svg PUBLIC "-//W3C//DTD SVG 20010904//EN"
 "http://www.w3.org/TR/2001/REC-SVG-20010904/DTD/svg10.dtd">
<svg version="1.0" xmlns="http://www.w3.org/2000/svg"
 width="898.000000pt" height="898.000000pt" viewBox="0 0 898.000000 898.000000"
 preserveAspectRatio="xMidYMid meet">
<metadata>
Created by potrace 1.11, written by Peter Selinger 2001-2013
</metadata>
<g transform="translate(0.000000,898.000000) scale(0.100000,-0.100000)"
fill="#000000" stroke="none">
<path d="M4417 8973 c-1 0 -67 -4 -147 -8 -141 -6 -175 -8 -270 -19 -133 -15
-144 -17 -235 -32 -148 -24 -531 -114 -557 -130 -4 -3 -16 -7 -25 -9 -109 -21
-619 -226 -713 -285 -8 -5 -36 -19 -62 -31 -27 -12 -48 -25 -48 -30 0 -5 -3
-8 -7 -7 -7 3 -32 -10 -103 -52 -8 -5 -34 -19 -57 -31 -24 -13 -43 -26 -43
-31 0 -4 -6 -8 -13 -8 -7 0 -22 -7 -32 -15 -11 -8 -58 -40 -105 -71 -105 -71
-141 -96 -158 -111 -7 -7 -26 -20 -42 -30 -17 -9 -30 -21 -30 -25 0 -4 -5 -8
-10 -8 -6 0 -22 -10 -35 -22 -13 -13 -30 -28 -37 -33 -46 -36 -118 -96 -157
-130 -67 -58 -368 -363 -421 -425 -25 -29 -50 -58 -55 -64 -6 -6 -35 -42 -65
-81 -30 -38 -57 -72 -60 -75 -3 -3 -27 -35 -53 -72 -26 -36 -53 -72 -60 -80
-7 -7 -15 -17 -17 -23 -3 -11 -32 -57 -40 -65 -43 -40 -340 -580 -340 -619 0
-6 -4 -11 -10 -11 -5 0 -9 -3 -8 -7 1 -5 -4 -19 -10 -33 -45 -105 -124 -308
-125 -322 -1 -10 -5 -18 -9 -18 -4 0 -7 -3 -6 -7 1 -5 -11 -46 -26 -93 -15
-47 -29 -92 -31 -100 -2 -8 -14 -49 -25 -90 -12 -41 -23 -82 -25 -90 -8 -33
-44 -196 -49 -220 -3 -14 -8 -36 -11 -50 -3 -14 -8 -45 -11 -70 -3 -25 -7 -52
-9 -60 -5 -19 -17 -104 -29 -205 -22 -187 -29 -673 -12 -850 4 -49 10 -108 12
-130 6 -72 33 -254 48 -321 2 -12 7 -37 10 -55 3 -19 8 -45 11 -59 3 -14 8
-36 11 -50 3 -14 7 -33 10 -42 3 -9 7 -25 9 -36 2 -12 16 -65 30 -119 15 -54
28 -102 29 -108 12 -56 134 -393 187 -515 37 -86 226 -456 239 -470 3 -3 11
-15 18 -28 26 -47 37 -66 45 -76 4 -6 35 -53 68 -105 34 -52 67 -101 75 -108
8 -8 14 -18 14 -23 0 -5 6 -15 13 -22 7 -7 24 -29 37 -48 13 -19 27 -37 30
-40 3 -3 28 -34 55 -70 28 -36 57 -72 65 -81 45 -50 69 -79 66 -79 -10 0 296
-311 385 -390 46 -41 94 -85 106 -97 l23 -22 -22 -38 c-12 -21 -25 -40 -28
-43 -3 -3 -14 -23 -25 -45 -32 -64 -89 -160 -97 -163 -5 -2 -6 -7 -3 -12 3 -5
0 -15 -7 -22 -7 -8 -21 -29 -32 -48 -21 -40 -42 -77 -121 -215 -32 -55 -69
-122 -84 -150 -14 -27 -28 -52 -32 -55 -3 -3 -12 -20 -20 -38 -8 -17 -17 -32
-21 -32 -5 0 -8 -7 -8 -15 0 -8 -5 -15 -11 -15 -5 0 -8 -3 -5 -8 2 -4 -11 -32
-30 -62 -19 -30 -34 -58 -34 -62 0 -11 3854 -5 3894 5 16 5 33 10 38 13 4 3 8
0 8 -6 0 -6 4 -8 10 -5 12 8 30 11 101 19 31 4 67 9 80 11 13 3 44 7 68 10 24
3 47 7 51 10 4 2 22 7 41 9 19 3 44 7 55 10 12 2 38 7 59 10 20 4 41 9 46 12
5 2 21 7 36 9 16 3 58 13 96 23 37 11 67 18 67 15 0 -2 9 1 21 7 11 6 30 13
42 15 31 5 311 99 317 106 3 3 17 9 31 12 14 4 43 14 65 24 21 9 41 17 44 18
76 22 541 256 548 276 2 5 12 9 23 9 11 0 22 7 25 15 4 8 11 15 17 15 11 0
303 192 344 226 13 11 44 35 69 54 172 129 431 369 574 530 30 34 60 67 67 74
16 18 84 99 103 122 119 149 240 317 240 332 0 6 3 12 8 14 33 14 358 603 374
678 2 8 5 17 8 20 6 6 71 160 74 175 1 6 4 15 7 20 3 6 12 30 19 55 7 25 17
50 20 55 6 8 15 37 25 75 0 3 9 28 18 56 10 28 20 59 22 70 3 10 19 69 35 129
17 61 32 121 35 135 3 14 7 36 10 50 28 126 61 316 71 413 2 20 6 56 9 80 25
208 26 812 1 947 -3 14 -7 48 -10 75 -12 110 -17 142 -27 185 -5 25 -11 56
-13 70 -2 14 -6 41 -10 60 -4 19 -8 42 -10 50 -2 8 -6 29 -10 45 -4 17 -12 50
-17 75 -6 25 -15 61 -20 80 -6 19 -12 42 -13 50 -2 8 -6 22 -9 30 -6 16 -18
64 -24 94 -2 11 -8 25 -14 33 -6 7 -9 13 -6 13 3 0 -6 33 -19 73 -14 39 -27
77 -28 82 -5 16 -16 45 -42 110 -13 33 -24 63 -24 67 0 4 -12 33 -26 65 -15
32 -33 74 -41 93 -25 56 -146 305 -152 310 -3 3 -14 21 -23 40 -29 59 -173
297 -188 310 -5 5 -75 107 -95 139 -5 9 -12 18 -15 21 -3 3 -32 41 -65 84 -33
44 -69 89 -81 101 -12 12 -23 26 -25 32 -14 36 -382 415 -517 532 l-62 53 30
52 c17 28 39 67 48 86 9 19 20 37 23 40 3 3 12 20 20 38 8 17 17 32 21 32 5 0
8 4 8 10 0 5 20 44 45 86 25 41 45 77 45 79 0 2 13 26 29 53 15 26 41 70 56
98 15 27 41 72 57 99 16 28 36 66 46 85 9 19 23 41 30 48 6 7 12 20 12 28 0 8
3 14 8 14 4 0 16 19 27 43 11 23 26 48 32 55 7 7 13 20 13 28 0 8 3 14 8 14 4
0 12 11 19 25 8 19 8 25 0 26 -20 2 -3529 4 -3530 2z m343 -1848 c36 -4 79 -9
95 -10 17 -2 30 -4 30 -5 0 -1 11 -3 25 -5 117 -12 444 -99 545 -144 11 -5 40
-18 65 -28 58 -23 332 -161 340 -171 6 -9 37 -28 70 -44 14 -7 27 -15 30 -18
3 -4 28 -21 55 -40 28 -19 52 -36 55 -40 3 -3 21 -17 40 -30 19 -13 37 -27 40
-30 3 -3 34 -30 70 -60 106 -89 281 -269 346 -356 16 -21 34 -44 39 -50 41
-47 155 -218 155 -233 0 -5 6 -14 13 -18 13 -8 121 -219 169 -328 50 -115 141
-408 153 -490 1 -11 5 -36 9 -55 20 -115 24 -144 35 -250 9 -86 7 -454 -2
-500 -5 -22 -12 -77 -22 -165 -3 -25 -16 -87 -60 -275 -2 -8 -4 -15 -5 -15 -1
0 -3 -10 -6 -22 -6 -35 -94 -273 -117 -318 -11 -22 -19 -41 -19 -42 3 -6 -33
-78 -40 -81 -5 -2 -8 -11 -8 -21 0 -9 -4 -21 -9 -26 -5 -6 -20 -30 -33 -55
-52 -93 -71 -125 -77 -130 -3 -3 -15 -21 -25 -40 -11 -19 -24 -39 -28 -45 -5
-5 -31 -41 -58 -78 -27 -37 -54 -73 -60 -80 -105 -130 -335 -358 -435 -433
-74 -55 -204 -145 -225 -156 -14 -7 -27 -15 -30 -18 -22 -24 -369 -200 -378
-192 -1 1 -15 -4 -30 -11 -75 -39 -352 -121 -437 -131 -12 -1 -25 -5 -31 -9
-6 -3 -33 -8 -62 -11 -28 -2 -55 -6 -59 -9 -4 -3 -44 -8 -88 -12 -44 -4 -93
-9 -110 -11 -51 -5 -337 -4 -385 1 -25 3 -70 7 -100 10 -30 3 -64 7 -76 9 -12
2 -45 7 -75 11 -30 4 -58 9 -62 12 -5 3 -24 7 -42 9 -32 3 -241 58 -280 74
-11 4 -49 18 -85 31 -36 12 -69 26 -74 31 -6 4 -16 8 -23 8 -29 0 -363 173
-371 192 -2 4 -8 8 -13 8 -33 0 -309 211 -437 334 -110 106 -101 96 -152 157
-25 29 -53 61 -62 71 -10 10 -18 20 -18 23 0 3 -12 18 -26 34 -64 72 -205 293
-269 420 -50 101 -105 218 -105 225 0 3 -5 17 -12 33 -6 15 -12 31 -12 35 -1
3 -4 10 -8 14 -5 4 -8 17 -8 29 0 11 -4 25 -8 30 -7 8 -29 73 -38 110 -1 6
-11 46 -23 90 -11 44 -23 94 -26 110 -2 17 -7 41 -10 55 -3 14 -7 41 -10 60
-3 19 -7 46 -10 60 -25 125 -26 645 0 723 4 11 10 53 21 142 3 21 8 43 10 47
3 5 8 21 10 36 3 15 10 45 16 67 5 22 11 47 13 55 2 8 18 60 36 115 18 55 32
103 31 108 -1 4 2 7 8 7 5 0 10 6 10 14 0 8 5 27 12 43 6 15 11 31 10 36 -1 4
2 7 7 7 5 0 12 12 16 27 7 30 21 58 87 184 49 92 52 97 121 204 162 252 375
476 662 698 49 38 215 142 285 178 36 19 67 37 68 42 2 4 8 7 14 7 5 0 47 17
92 38 44 22 115 51 156 66 41 15 82 31 90 35 9 5 31 12 50 17 19 4 38 9 43 10
4 1 9 3 12 4 3 1 8 3 13 4 4 2 26 8 49 15 50 14 221 51 231 50 4 -1 10 0 15 1
4 1 16 4 27 5 11 1 21 4 23 5 3 3 37 6 142 15 50 4 91 9 93 10 6 5 363 -3 422
-10z"/>
<path d="M4356 5783 c-2 -3 -21 -6 -43 -8 -117 -12 -323 -75 -403 -125 -8 -5
-35 -19 -60 -31 -25 -13 -50 -28 -57 -33 -7 -6 -36 -27 -65 -46 -75 -50 -244
-223 -305 -312 -61 -88 -133 -229 -157 -308 -10 -30 -22 -64 -27 -75 -5 -11
-11 -35 -12 -52 -1 -18 -5 -33 -8 -33 -3 0 -6 -6 -6 -12 0 -7 -4 -38 -9 -68
-17 -112 -8 -380 16 -470 5 -19 11 -45 13 -57 2 -12 6 -26 10 -29 4 -4 7 -14
7 -23 0 -24 55 -161 92 -228 41 -76 110 -179 148 -223 43 -50 153 -160 160
-160 3 0 25 -18 50 -40 25 -22 57 -46 73 -53 15 -6 27 -14 27 -18 0 -11 206
-108 285 -134 132 -43 277 -68 400 -68 49 0 196 12 227 19 13 3 37 8 53 11 45
8 58 11 145 38 3 1 18 7 33 13 16 7 30 12 32 12 7 0 160 73 165 79 3 3 22 15
43 26 20 11 37 23 37 27 0 5 6 8 13 8 16 1 76 50 156 128 35 34 67 62 70 62 3
0 17 17 31 37 14 20 30 41 36 47 40 41 164 255 164 283 0 7 5 13 12 13 6 0 9
3 5 6 -3 4 0 19 8 34 8 15 17 38 20 51 3 13 13 56 24 94 28 105 32 137 36 290
4 151 -10 268 -46 390 -22 73 -98 256 -109 265 -4 3 -15 20 -24 39 -16 30 -68
106 -106 155 -32 40 -167 173 -205 201 -22 17 -42 32 -45 36 -19 21 -224 135
-260 144 -3 1 -18 7 -35 14 -35 15 -142 49 -170 54 -11 2 -31 7 -45 10 -72 18
-380 33 -394 20z"/>
</g>
</svg>
